# xmcd CD database file
#
# Track frame offsets:
#	182
#	14990
#	25840
#	39477
#	52505
#	63245
#	75687
#	95242
#	107940
#	118742
#	129802
#	141070
#	152080
#	163275
#
# Disc length: 2330 seconds
#
# Revision: 0
# Processed by: cddbd v1.4PL0 Copyright (c) Steve Scherf et al.
# Submitted via: Feurio! 1.63 - http://www.feurio.com
#
DISCID=b909180e
DTITLE=Heino - Schlager
DYEAR=1900
DGENRE=country
TTITLE0=In einer Bar in Mexico
TTITLE1=Von den Bergen rauscht ein Wasser
TTITLE2=Leila
TTITLE3=Wir lagen vor Madagaskar
TTITLE4=Ja ja, wenn Mutter lacht
TTITLE5=Schwer war der Abschied
TTITLE6=Mohikana Shalali
TTITLE7=Fernweh
TTITLE8=Wir lieben die Stürme
TTITLE9=Brüder na sdrowje
TTITLE10=Fahr mich in die Ferne
TTITLE11=Steh ich in finst'rer Mitternacht
TTITLE12=Muss i denn
TTITLE13=Nun ade du mein lieb' Heimatland
EXTD=
EXTT0=
EXTT1=
EXTT2=
EXTT3=
EXTT4=
EXTT5=
EXTT6=
EXTT7=
EXTT8=
EXTT9=
EXTT10=
EXTT11=
EXTT12=
EXTT13=
PLAYORDER=
